<svg width="295" height="180" viewBox="0 0 295 180" fill="none" xmlns="http://www.w3.org/2000/svg">
    <g clip-path="url(#clip0_12_293)">
        <path d="M231.436 28.1153C231.436 28.1153 224.943 28.8465 224.523 38.8906C224.173 47.2613 223.46 51.9256 226.871 53.6716C228.089 54.2956 229.521 54.3492 230.824 53.9237L244.739 49.3539C244.739 49.3539 244.947 34.2893 240.129 30.6272C235.311 26.965 231.436 28.1153 231.436 28.1153Z" fill="#36344E"/>
        <path d="M239.107 51.2007L232.064 53.514V43.3879H238.453L239.107 51.2007Z" fill="#FAAFB2"/>
        <path d="M217.579 108.679C217.197 110.999 215.648 112.663 214.121 112.395C212.591 112.127 211.663 110.028 212.045 107.709C212.184 106.779 212.553 105.9 213.118 105.147L214.862 95.3388L219.611 96.3316L217.387 105.893C217.68 106.798 217.746 107.753 217.579 108.679Z" fill="#FAAFB2"/>
        <path d="M233.702 173.895H227.108L223.28 138.692H233.478L233.702 173.895Z" fill="#FAAFB2"/>
        <path d="M220.684 179.552C219.99 179.552 219.371 179.537 218.907 179.493C217.156 179.332 215.484 178.04 214.645 177.286C214.269 176.949 214.146 176.407 214.342 175.941C214.484 175.607 214.765 175.358 215.115 175.257L219.743 173.936L227.24 168.884L227.325 169.036C227.357 169.092 228.092 170.416 228.338 171.311C228.433 171.651 228.407 171.935 228.265 172.156C228.168 172.307 228.029 172.395 227.918 172.446C228.054 172.587 228.48 172.874 229.789 173.082C231.705 173.385 232.102 171.406 232.121 171.324L232.134 171.257L232.19 171.22C233.099 170.633 233.661 170.369 233.853 170.425C233.973 170.46 234.175 170.523 234.718 175.912C234.771 176.083 235.153 177.321 234.894 178.509C234.614 179.801 228.969 179.357 227.84 179.253C227.808 179.256 223.583 179.556 220.687 179.556H220.684V179.552Z" fill="#36344E"/>
        <path d="M248.604 173.895H242.006L238.182 138.692H248.376L248.604 173.895Z" fill="#FAAFB2"/>
        <path d="M235.585 179.552C234.891 179.552 234.273 179.537 233.809 179.493C232.058 179.332 230.386 178.04 229.546 177.286C229.171 176.949 229.048 176.407 229.244 175.941C229.386 175.607 229.666 175.358 230.017 175.257L234.645 173.936L242.142 168.884L242.227 169.036C242.259 169.092 242.994 170.416 243.24 171.311C243.334 171.651 243.309 171.935 243.167 172.156C243.069 172.307 242.931 172.395 242.82 172.446C242.956 172.587 243.382 172.874 244.691 173.082C246.606 173.385 247.004 171.406 247.023 171.324L247.035 171.257L247.092 171.22C248.004 170.633 248.563 170.369 248.755 170.425C248.875 170.46 249.077 170.523 249.62 175.912C249.673 176.083 250.055 177.321 249.796 178.509C249.515 179.801 243.871 179.357 242.741 179.253C242.71 179.256 238.485 179.556 235.589 179.556H235.585V179.552Z" fill="#36344E"/>
        <path d="M250.5 87.4315H218.453L229.972 49.562H242.751L250.5 87.4315Z" fill="#DFDFE0"/>
        <path d="M231.989 49.5651C231.989 49.5651 224.028 49.3571 223.192 51.4498C222.356 53.5424 212.509 103.341 212.509 103.341H219.002L231.989 49.5683V49.5651Z" fill="#DFDFE0"/>
        <path d="M232.935 46.1897C236.811 46.1897 239.952 43.0516 239.952 39.1806C239.952 35.3095 236.811 32.1714 232.935 32.1714C229.06 32.1714 225.918 35.3095 225.918 39.1806C225.918 43.0516 229.06 46.1897 232.935 46.1897Z" fill="#FAAFB2"/>
        <path d="M231.017 30.7311C231.017 30.7311 227.155 46.3945 231.449 53.7157L225.401 52.433C225.401 52.433 223.056 35.2915 227.77 32.1746L231.017 30.7311Z" fill="#36344E"/>
        <path d="M243.839 87.4315H222.807L211.3 134.608C211.089 136.599 212.354 138.459 214.291 138.979C220.605 140.668 235.756 143.06 258.684 136.395C260.89 135.755 262.142 133.429 261.451 131.239L243.839 87.4315Z" fill="#36344E"/>
        <path d="M235.336 49.5619L241.877 49.2751C244.71 49.4895 247.272 51.0274 248.79 53.4258C253.412 60.7249 262.06 76.1078 254.34 78.2162C244.161 80.9928 239.23 65.5342 239.23 65.5342L235.336 49.5619Z" fill="#DFDFE0"/>
        <path d="M233.093 54.1444C231.749 52.2156 231.701 49.9433 232.982 49.0703C234.267 48.1973 236.396 49.0577 237.74 50.9865C238.289 51.7491 238.636 52.6379 238.756 53.5708L244.344 61.8216L240.246 64.4154L235.172 56.0069C234.33 55.5626 233.617 54.9228 233.093 54.1444Z" fill="#FAAFB2"/>
        <path d="M236.399 60.8163L241.015 56.5742L250.143 65.0615L241.656 70.8572L236.399 60.8163Z" fill="#DFDFE0"/>
        <path d="M10.2258 39.9086H155.129C160.777 39.9086 165.355 44.4816 165.355 50.1229C165.355 55.7643 160.777 60.3372 155.129 60.3372H10.2258C4.57812 60.3372 0 55.7643 0 50.1229C0 44.4816 4.57812 39.9086 10.2258 39.9086Z" fill="#63ABFF"/>
        <path d="M64.1473 179.625C64.1473 179.833 64.3146 180 64.5228 180H294.625C294.833 180 295 179.833 295 179.625C295 179.417 294.833 179.25 294.625 179.25H64.5228C64.3146 179.25 64.1473 179.417 64.1473 179.625Z" fill="#484565"/>
        <path d="M133.974 29.6092H164.058C164.778 29.6092 165.358 30.1891 165.358 30.9045C165.358 31.6199 164.778 32.1998 164.058 32.1998H133.974C133.254 32.1998 132.674 31.6199 132.674 30.9045C132.674 30.1891 133.254 29.6092 133.974 29.6092Z" fill="#DFDFE0"/>
        <path d="M1.29992 0H31.3843C32.1036 0 32.6842 0.579893 32.6842 1.2953C32.6842 2.01072 32.1036 2.59061 31.3843 2.59061H1.29992C0.580547 2.59376 0 2.01387 0 1.2953C0 0.579893 0.580547 0 1.29992 0Z" fill="#DFDFE0"/>
        <path d="M1.29992 11.3174H89.603C90.3224 11.3174 90.903 11.8973 90.903 12.6158C90.903 13.3312 90.3224 13.9111 89.603 13.9111H1.29992C0.580547 13.9111 0 13.3312 0 12.6158C0 11.9004 0.580547 11.3174 1.29992 11.3174Z" fill="#DFDFE0"/>
        <path d="M73.7579 82.2187C73.7579 89.0136 79.2731 94.5225 86.0756 94.5225C88.1359 94.5225 90.0763 94.0183 91.7801 93.1264L103.716 112.036C104.448 113.193 106.01 113.483 107.108 112.663C108.133 111.897 108.354 110.454 107.606 109.414L94.4777 91.2134C96.8851 88.9663 98.3933 85.7674 98.3933 82.2187C98.3933 75.4239 92.8781 69.9149 86.0756 69.9149C79.2731 69.9149 73.7579 75.4239 73.7579 82.2187ZM75.449 82.2187C75.449 76.3568 80.207 71.601 86.0787 71.601C91.9505 71.601 96.7084 76.3536 96.7084 82.2187C96.7084 88.0807 91.9505 92.8364 86.0787 92.8364C80.2102 92.8364 75.449 88.0838 75.449 82.2187Z" fill="#484662"/>
    </g>
    <defs>
        <clipPath id="clip0_12_293">
            <rect width="295" height="180" fill="white"/>
        </clipPath>
    </defs>
</svg>
