<svg width="357" height="238" viewBox="0 0 357 238" fill="none" xmlns="http://www.w3.org/2000/svg">
<g clip-path="url(#clip0_6_56)">
<path d="M268.513 9.19513C265.816 10.7125 261.463 4.71059 260.477 7.64641C259.49 10.5822 261.88 22.4281 263.112 25.2691C263.725 26.6812 264.591 27.9728 265.192 29.3899C265.793 30.807 266.116 32.4364 265.584 33.8812C264.66 36.3955 261.608 37.4183 260.094 39.6282C258.332 42.202 259.044 45.6687 259.868 48.6784C260.578 51.2725 261.335 53.8901 262.702 56.2056C264.069 58.5211 266.13 60.5373 268.705 61.3034C271.984 62.2789 275.489 61.1196 278.65 59.8109C281.689 58.5527 284.695 57.1263 287.28 55.0906C289.865 53.0549 292.022 50.3529 292.925 47.1871C294.059 43.216 293.112 38.87 291.149 35.2372C289.187 31.6044 286.284 28.5778 283.305 25.7205C278.289 20.9081 272.95 16.4322 267.337 12.3328L268.513 9.19513Z" fill="#2F2E41"/>
<path d="M308.625 212.959L306.079 236.752L305.963 237.84L277.154 237.728L277.002 236.636L273.952 214.834L308.625 212.959Z" fill="#FFB6B6"/>
<path d="M264.578 236.589C264.578 236.948 264.574 237.311 264.57 237.677L234.665 237.561L234.567 236.47L232.723 215.773L263.647 212.019C263.647 212.019 264.643 222.997 264.578 236.589Z" fill="#FFB6B6"/>
<path d="M261.249 51.3445C266 57.3356 274.375 59.0717 281.134 55.5056C290.782 50.4153 303.955 44.5814 306.283 49.243C310.032 56.7486 310.032 64.0326 310.032 64.0326L313.78 151.506C313.78 151.506 315.654 186.825 292.227 183.708C268.8 180.59 232.253 193.725 232.253 193.725L235.986 154.973L245.954 140.363L249.992 98.4456L243.029 64.7233L251.463 60.9705C251.463 60.9705 252.4 54.4031 255.212 54.4031C258.023 54.4031 258.702 48.0943 261.174 51.2487C261.198 51.2802 261.224 51.3122 261.249 51.3445Z" fill="#63ABFF"/>
<path d="M312.073 237.866L305.963 237.84L277.154 237.728L273.405 237.714L273.188 236.622L267.392 207.33L266.487 236.597L266.454 237.684L264.57 237.677L234.665 237.561L232.52 237.55L232.513 236.462L232.386 215.776L232.27 196.621L232.252 193.723L232.256 193.72L241.21 175.547L243.822 170.245L244.358 169.157L249.589 158.542L296.918 151.982L297.642 151.88L310.501 150.1L310.596 155.376L310.65 158.372L310.842 169.157L310.864 170.245L310.885 171.489L312.052 236.774L312.073 237.866Z" fill="#2F2E41"/>
<path d="M275.251 48.562C286.059 48.562 294.821 39.7898 294.821 28.9686C294.821 18.1475 286.059 9.37524 275.251 9.37524C264.442 9.37524 255.68 18.1475 255.68 28.9686C255.68 39.7898 264.442 48.562 275.251 48.562Z" fill="#FFB6B6"/>
<path d="M297.312 59.6546C292.745 66.1781 290.409 74.2383 290.779 82.1964C285.6 79.6847 282.105 74.378 280.915 68.7411C279.726 63.1042 280.633 57.1855 282.545 51.7513C282.564 51.697 282.583 51.6427 282.603 51.5884C285.505 43.4318 282.808 34.3156 275.797 29.2452C271.068 25.8251 266.967 21.5344 263.819 16.616C262.042 13.8394 260.532 10.3563 261.859 7.33827C263.083 4.55727 266.243 3.25747 269.151 2.38776C275.792 0.401836 282.848 -0.728181 289.664 0.528454C296.48 1.78509 303.041 5.70942 306.263 11.8531C309.484 17.9968 308.64 26.3815 303.411 30.936C305.06 31.4698 306.227 33.2198 306.087 34.9493C305.947 36.6789 304.514 38.2178 302.801 38.4787C303.918 38.439 304.578 39.9131 304.18 40.9595C303.781 42.0059 302.753 42.6559 301.772 43.1945C300.375 43.9617 298.827 44.7639 298.821 46.773C298.818 47.5786 299.105 48.3604 299.574 49.0151C300.71 50.6018 302.544 51.3163 304.31 51.9871C300.575 53.0883 297.597 56.43 296.929 60.2696L297.312 59.6546Z" fill="#2F2E41"/>
<path d="M213.861 52.0748C213.326 46.465 215.785 41.642 219.351 41.3023C222.917 40.9626 226.239 45.2345 226.773 50.8463C227.016 53.0851 226.721 55.3497 225.912 57.4508L227.875 81.2481L216.701 81.9323L215.952 58.3998C214.76 56.4889 214.043 54.3201 213.861 52.0748Z" fill="#FFB6B6"/>
<path d="M274.738 63.3639C274.738 63.3639 256.483 52.6129 252.724 54.2256C248.966 55.8382 230.711 83.2532 230.711 83.2532L229.032 78.2502L216.214 79.4903C216.214 79.4903 208.697 114.431 225.341 111.206C241.986 107.98 269.369 77.8777 269.369 77.8777L274.738 63.3639Z" fill="#63ABFF"/>
<path d="M105.371 121.129C105.371 121.129 115.678 115.08 118.454 120.689C121.23 126.299 146.874 193.222 146.874 193.222L130.349 196.443L105.371 121.129Z" fill="#63ABFF"/>
<path d="M82.89 81.1515L83.3758 81.844C81.5644 82.8909 81.2974 85.5322 82.1468 87.4488C82.9962 89.3654 84.6402 90.786 86.0623 92.3257C87.4844 93.8654 88.781 95.7724 88.6491 97.8661C88.5011 100.221 86.5836 102.16 86.3165 104.505C85.9304 107.919 89.106 110.915 88.9483 114.349C88.8293 116.971 86.8152 119.078 84.8172 120.778C83.2535 122.112 81.5515 123.452 80.4962 125.172C80.2067 125.645 79.9654 126.151 79.7884 126.692C79.0002 129.134 79.7434 131.795 80.744 134.156C81.7414 136.517 83.0122 138.823 83.3243 141.368C83.6332 143.913 82.6744 146.85 80.3354 147.894C84.9942 147.495 89.5403 145.868 93.398 143.223C93.7455 142.985 94.0833 142.74 94.4179 142.489C99.8875 138.366 103.729 132.41 107.426 126.605C107.732 126.129 108.034 125.649 108.34 125.172C109.16 123.88 109.984 122.592 110.807 121.3C113.156 117.609 115.534 113.862 116.814 109.681C117.992 105.826 118.191 101.751 118.674 97.7469C118.909 95.7853 119.218 93.83 119.276 91.8554C119.369 88.8178 118.851 85.7674 117.796 82.9166C116.763 80.1142 115.212 77.5019 113.214 75.2792C111.168 73.0019 108.665 71.1497 105.91 69.8161C103.243 68.5244 100.341 67.7224 97.3844 67.5001C96.3934 67.426 95.4057 67.4131 94.4179 67.4583C90.5217 67.6193 86.6704 68.605 82.9254 69.8161C80.1713 71.1497 77.6682 73.0019 75.6219 75.2792C73.6239 77.5019 72.0731 80.1142 71.0403 82.9167C74.6309 80.9968 78.8972 80.3365 82.89 81.1515Z" fill="#2F2E41"/>
<path d="M110.813 116.391L92.3392 109.138L91.8715 116.391L75.6766 118.929L68.0698 153.382L74.9522 174.778L126.389 176.229L124.578 168.976C124.578 168.976 132.909 159.547 127.838 144.315L127.275 140.439C125.802 130.303 119.723 121.423 110.813 116.391Z" fill="#63ABFF"/>
<path d="M100.531 108.812C109.593 108.812 116.94 101.457 116.94 92.3837C116.94 83.3107 109.593 75.9557 100.531 75.9557C91.4687 75.9557 84.1222 83.3107 84.1222 92.3837C84.1222 101.457 91.4687 108.812 100.531 108.812Z" fill="#A0616A"/>
<path d="M69.5603 91.8554C69.6182 93.83 69.9271 95.7853 70.162 97.7469C70.6446 101.751 70.844 105.826 72.0216 109.681C73.3021 113.862 75.6798 117.609 78.0285 121.3C78.8522 122.592 79.6758 123.88 80.4962 125.172C80.8019 125.649 81.1043 126.129 81.41 126.605C85.1068 132.41 88.9483 138.366 94.4179 142.489C94.7525 142.74 95.0904 142.985 95.4378 143.223C99.2955 145.868 103.842 147.495 108.5 147.894C106.161 146.85 105.203 143.913 105.512 141.368C105.824 138.823 107.094 136.517 108.092 134.156C109.092 131.795 109.836 129.134 109.047 126.692C108.87 126.151 108.629 125.645 108.34 125.172C107.284 123.452 105.582 122.112 104.019 120.778C102.021 119.078 100.007 116.971 99.8875 114.349C99.7298 110.915 97.5388 112.065 97.1527 108.651C96.8857 106.306 93.7616 102.308 93.6136 99.9534C93.4817 97.8597 94.7654 92.796 96.1875 91.2563C97.6096 89.7165 96.3033 85.12 97.1527 83.2033C98.0021 81.2868 107.271 82.8909 105.46 81.844L105.946 81.1515C109.939 80.3365 114.205 80.9968 117.796 82.9167C118.577 83.3322 119.324 83.8057 120.032 84.3404C121.74 81.2159 119.713 77.2506 116.956 74.999C114.256 72.7893 110.93 71.5137 107.629 70.3895C107.059 70.1962 106.486 70.003 105.91 69.8161C102.165 68.605 98.3142 67.6193 94.4179 67.4582C93.4302 67.4131 92.4424 67.426 91.4515 67.5001C88.4947 67.7224 85.5926 68.5244 82.9254 69.8161C80.1713 71.1497 77.6681 73.0019 75.6219 75.2792C73.6239 77.5019 72.0731 80.1142 71.0403 82.9166C69.985 85.7674 69.467 88.8178 69.5603 91.8554Z" fill="#2F2E41"/>
<path d="M355.987 223.182L333.115 175.068C331.409 171.478 327.74 169.157 323.766 169.157H34.8801C33.7824 169.157 32.714 169.328 31.7069 169.654C29.1604 170.47 26.9943 172.254 25.712 174.706L1.19618 221.496C-0.499039 224.727 -0.386726 228.527 1.49686 231.654C3.37681 234.783 6.67677 236.662 10.3245 236.676L232.52 237.55L234.665 237.561L264.57 237.677L266.454 237.684L273.405 237.714L277.154 237.728L305.963 237.84L312.073 237.866L346.598 238H346.641C350.205 238 353.469 236.201 355.382 233.188C357.302 230.159 357.526 226.417 355.987 223.182Z" fill="white"/>
<path d="M355.987 223.182L333.115 175.068C331.409 171.478 327.74 169.157 323.766 169.157H34.8801C33.7824 169.157 32.714 169.328 31.7069 169.654C29.1604 170.47 26.9943 172.254 25.712 174.706L1.19618 221.496C-0.499039 224.727 -0.386726 228.527 1.49686 231.654C3.37681 234.783 6.67677 236.662 10.3245 236.676L232.52 237.55L234.665 237.561L264.57 237.677L266.454 237.684L273.405 237.714L277.154 237.728L305.963 237.84L312.073 237.866L346.598 238H346.641C350.205 238 353.469 236.201 355.382 233.188C357.302 230.159 357.526 226.417 355.987 223.182ZM354.465 232.604C352.752 235.305 349.832 236.912 346.641 236.912H346.601L312.052 236.774L306.079 236.752L277.002 236.636L273.188 236.622L266.487 236.597L264.578 236.589L234.567 236.47L232.513 236.462L10.328 235.588C7.06438 235.574 4.10852 233.895 2.42781 231.095C0.743383 228.295 0.642038 224.894 2.15976 222L26.6755 175.213C27.5593 173.527 28.9068 172.193 30.5188 171.333C31.8337 170.629 33.3261 170.245 34.8801 170.245H323.766C327.323 170.245 330.605 172.323 332.134 175.536L355.005 223.646C356.385 226.547 356.182 229.895 354.465 232.604Z" fill="#3F3D56"/>
<path d="M102.663 203.972L157.36 184.026L130.011 173.013L75.4955 187.29L102.663 203.972Z" fill="#F2F2F2"/>
<path d="M185.976 173.872L179.818 193.455L251.902 197.807L245.744 175.685L185.976 173.872Z" fill="#F2F2F2"/>
<path d="M101.006 177.221C106.075 177.725 109.923 180.751 109.603 183.98C109.283 187.209 104.915 189.418 99.8449 188.914C97.8169 188.74 95.86 188.083 94.1377 186.997L72.6906 184.594L74.0317 174.541L95.0324 177.978C96.9348 177.252 98.9833 176.992 101.006 177.221Z" fill="#A0616A"/>
<path d="M79.48 120.924L75.6766 118.929C75.6766 118.929 69.6998 119.111 65.7153 123.1C61.7307 127.089 29.4922 172.784 29.4922 172.784C29.4922 172.784 21.5231 185.114 41.4458 186.927C61.3685 188.74 83.4646 188.74 83.4646 188.74L85.2757 173.872L55.2106 170.608L76.2642 142.683L79.48 120.924Z" fill="#63ABFF"/>
<path d="M192.507 116.093C188.852 117.178 184.991 117.79 181.002 117.849C180.767 117.856 180.532 117.859 180.296 117.859C176.688 117.859 173.185 117.413 169.835 116.572L169.922 115.712L171.871 96.8943L171.994 95.6902L170.186 90.2613H192.362L192.007 95.567L191.877 97.4999L192.069 98.1128L196.959 113.714L197.176 114.411C195.662 115.06 194.104 115.622 192.507 116.093Z" fill="#63ABFF"/>
<path d="M169.835 116.572C164.572 115.256 159.689 112.964 155.389 109.906C153.618 108.945 151.897 107.905 150.249 106.802L151.064 106.392L171.541 96.1399L171.871 96.8942L180.687 117.13L181.002 117.848C180.767 117.856 180.532 117.859 180.296 117.859C176.688 117.859 173.185 117.413 169.835 116.572Z" fill="#2F2E41"/>
<path d="M214.447 101.007C214.357 101.13 214.262 101.25 214.168 101.369C212.64 103.313 210.944 105.119 209.112 106.769L209.097 105.801L209.046 102.236C209.046 102.236 210.51 101.166 212.317 100.887C212.748 100.818 213.201 100.796 213.658 100.847C213.922 100.873 214.183 100.923 214.447 101.007Z" fill="#2F2E41"/>
<path d="M209.112 106.769C205.605 109.935 201.577 112.532 197.176 114.411C195.662 115.06 194.104 115.622 192.507 116.093L192.489 115.342L192.069 98.1128L192.007 95.567L212.317 100.887L213.397 101.17L214.168 101.369C212.64 103.313 210.944 105.119 209.112 106.769Z" fill="#2F2E41"/>
<path d="M181.483 84.3782C190.467 84.3782 197.751 77.0863 197.751 68.0913C197.751 59.0963 190.467 51.8044 181.483 51.8044C172.499 51.8044 165.215 59.0963 165.215 68.0913C165.215 77.0863 172.499 84.3782 181.483 84.3782Z" fill="#A0616A"/>
<path d="M192.49 115.343C188.745 116.474 184.786 117.094 180.689 117.131L181.004 117.849C184.992 117.791 188.853 117.178 192.508 116.093L192.49 115.343ZM151.066 106.392C142.716 98.6677 137.417 87.6865 137.203 75.4868C128.68 85.3655 137.149 98.044 150.251 106.802C151.899 107.905 153.619 108.945 155.391 109.906C153.873 108.829 152.427 107.654 151.066 106.392ZM214.028 47.8633C206.125 37.9266 193.943 31.5474 180.298 31.5474C156.532 31.5474 137.192 50.906 137.192 74.7034C137.192 74.9646 137.196 75.2257 137.203 75.4868C137.428 75.222 137.667 74.9609 137.917 74.7034C149.87 62.3732 156.93 32.2727 180.298 32.2727C193.957 32.2727 206.128 38.7752 213.884 48.8534C219.397 56.0122 222.679 64.9807 222.679 74.7034C222.679 76.1142 222.61 77.5104 222.472 78.8849C222.385 79.7988 222.266 80.7054 222.117 81.6012C221.038 88.1833 218.44 94.2651 214.699 99.462C214.362 99.9334 214.014 100.394 213.659 100.847C213.572 100.956 213.489 101.065 213.398 101.17C212.08 102.82 210.642 104.369 209.099 105.801C205.56 109.094 201.459 111.785 196.96 113.714C195.511 114.342 194.019 114.886 192.49 115.343C188.745 116.474 184.786 117.094 180.689 117.131C180.558 117.134 180.428 117.134 180.298 117.134C177.016 117.134 173.498 116.63 169.923 115.713C165.04 114.461 160.045 112.445 155.391 109.906C159.69 112.964 164.573 115.256 169.836 116.572C173.187 117.413 176.69 117.859 180.298 117.859C180.533 117.859 180.768 117.856 181.004 117.849C184.992 117.791 188.853 117.178 192.508 116.093C194.106 115.622 195.663 115.06 197.177 114.411C201.579 112.532 205.607 109.935 209.113 106.769C210.946 105.119 212.641 103.313 214.17 101.37C214.264 101.25 214.358 101.13 214.449 101.007C214.572 100.847 214.695 100.684 214.814 100.521C218.911 95.0557 221.737 88.5859 222.86 81.554C223.005 80.651 223.12 79.7371 223.207 78.8123C223.338 77.4596 223.403 76.0888 223.403 74.7034C223.403 64.5672 219.897 55.2361 214.028 47.8633Z" fill="#E6E6E6"/>
<path d="M166.913 76.7557C163.986 73.9909 161.945 70.3262 163.987 62.5139C164.139 61.9323 163.732 61.3079 163.338 60.8538C162.944 60.3998 162.202 60.1887 161.735 60.5666C162.068 59.5858 166.626 56.0826 166.959 55.1019C166.57 55.6179 163.606 56.7241 163.369 56.1233C163.131 55.5225 163.339 54.8474 163.548 54.2359L164.792 50.5909C165.105 49.6741 166.34 50.7695 166.959 50.0247C168.068 48.6904 166.802 47.2838 168.495 46.9097C174.036 45.6854 179.91 44.5915 185.293 46.3886C187.644 47.1736 189.782 48.4777 191.897 49.771L195.768 52.1374C197.988 53.495 200.4 55.1055 201.008 57.638L196.944 56.1838C197.849 58.1137 198.763 60.0675 199.177 62.1589C199.591 64.2504 198.471 72.1253 197.386 73.96C196.433 75.5718 195.758 71.2429 195.445 73.0896C195.804 69.4621 194.173 65.6993 191.281 63.4839C190.688 63.0296 190.012 62.5926 189.748 61.8931C189.454 61.113 189.749 60.175 189.347 59.4446C188.848 58.5364 187.544 58.4498 186.572 58.8063C185.599 59.1627 184.749 59.8327 183.742 60.0728C181.071 60.7094 178.642 58.1814 175.903 57.9913C173.295 57.8102 170.961 59.8549 169.876 62.2372C168.791 64.6195 165.79 64.1038 165.51 66.7069C165.229 69.3099 169.326 74.4615 167.683 76.4986L166.913 76.7557Z" fill="#2F2E41"/>
<path d="M164.859 101.039L163.646 100.093L163.363 99.8754C163.092 99.6614 162.733 99.5889 162.396 99.6723L160.976 100.028C160.828 100.064 160.668 100.02 160.56 99.9116L158.966 98.3159C158.857 98.2071 158.814 98.0476 158.85 97.8989L159.205 96.4773C159.292 96.14 159.216 95.7846 159.002 95.509L157.839 94.0112C157.81 93.975 157.778 93.9387 157.745 93.9061C157.303 93.4636 156.59 93.4636 156.148 93.9061L155.478 94.577C154.996 95.0557 154.786 95.7774 155.021 96.4446C155.622 98.1564 156.6 99.7122 157.886 100.992C158.343 101.449 158.832 101.87 159.35 102.247C160.291 102.929 161.327 103.473 162.429 103.861C163.099 104.097 163.816 103.886 164.294 103.408L164.964 102.733C165.446 102.254 165.395 101.46 164.859 101.039ZM164.475 102.247L163.805 102.918C163.49 103.23 163.048 103.346 162.657 103.208C161.733 102.885 160.86 102.443 160.052 101.892C159.451 101.489 158.89 101.021 158.375 100.503C157.165 99.2951 156.242 97.83 155.673 96.2162C155.535 95.8245 155.651 95.3821 155.963 95.0666L156.637 94.3956C156.648 94.3811 156.662 94.3702 156.676 94.3594C156.869 94.2107 157.144 94.2433 157.292 94.4355L158.455 95.9333C158.538 96.0385 158.567 96.1799 158.535 96.3105L158.18 97.7321C158.082 98.1165 158.198 98.5263 158.477 98.8055L160.071 100.401C160.349 100.684 160.759 100.797 161.143 100.699L162.563 100.343C162.693 100.311 162.834 100.34 162.939 100.423L162.958 100.437L164.435 101.587C164.45 101.598 164.464 101.612 164.475 101.623C164.649 101.797 164.649 102.073 164.475 102.247Z" fill="#CCCCCC"/>
<path d="M179 97.7618C179.179 97.7618 179.324 97.9071 179.324 98.0863V98.7353C179.324 100.169 180.485 101.331 181.917 101.331C183.349 101.331 184.51 100.169 184.51 98.7353V98.0863C184.51 97.9071 184.655 97.7618 184.834 97.7618C185.013 97.7618 185.158 97.9071 185.158 98.0863V98.7353C185.158 100.402 183.897 101.797 182.241 101.964V103.278H184.186C184.365 103.278 184.51 103.423 184.51 103.603C184.51 103.782 184.365 103.927 184.186 103.927H179.648C179.469 103.927 179.324 103.782 179.324 103.603C179.324 103.423 179.469 103.278 179.648 103.278H181.593V101.964C179.937 101.797 178.676 100.402 178.676 98.7353V98.0863C178.676 97.9071 178.821 97.7618 179 97.7618Z" fill="#CCCCCC"/>
<path d="M181.917 93.5434C180.845 93.5434 179.971 94.4138 179.971 95.4909V98.7366C179.971 99.8101 180.845 100.68 181.917 100.68C182.993 100.68 183.862 99.8101 183.862 98.7366V95.4909C183.862 94.4138 182.993 93.5434 181.917 93.5434ZM183.214 98.7366C183.214 99.451 182.634 100.035 181.917 100.035C181.2 100.035 180.62 99.451 180.62 98.7366V95.4909C180.62 94.7728 181.2 94.1925 181.917 94.1925C182.634 94.1925 183.214 94.7728 183.214 95.4909V98.7366Z" fill="#CCCCCC"/>
<path d="M204.35 93.6703C203.332 93.3258 202.227 93.8698 201.883 94.8888L202.43 95.4365C202.466 94.7474 203.038 94.207 203.73 94.2107C204.444 94.2143 205.023 94.7982 205.02 95.5126V98.0295L205.668 98.6786V95.5126C205.668 94.6821 205.136 93.9387 204.35 93.6703ZM205.994 103.302H204.049V101.986C204.618 101.932 205.161 101.725 205.625 101.388L205.157 100.92C204.748 101.195 204.255 101.355 203.723 101.355C202.292 101.355 201.129 100.191 201.129 98.7584V98.1092C201.129 98.0512 201.115 97.9932 201.082 97.946C201.028 97.8518 200.927 97.7865 200.807 97.7865C200.749 97.7865 200.695 97.801 200.648 97.83C200.55 97.8844 200.481 97.9896 200.481 98.1092V98.7584C200.481 100.423 201.745 101.819 203.401 101.986V103.302H201.455C201.274 103.302 201.129 103.448 201.129 103.625C201.129 103.807 201.274 103.952 201.455 103.952H205.994C206.172 103.952 206.317 103.807 206.317 103.625C206.317 103.448 206.172 103.302 205.994 103.302ZM206.643 97.7865C206.461 97.7865 206.317 97.9315 206.317 98.1092V98.7584C206.317 98.9325 206.298 99.1065 206.266 99.277L206.298 99.3096L206.791 99.8065C206.827 99.694 206.86 99.5816 206.885 99.4656C206.94 99.2371 206.965 99.0014 206.965 98.7584V98.1092C206.965 97.9315 206.82 97.7865 206.643 97.7865Z" fill="#CCCCCC"/>
<path d="M205.06 98.9869L200.065 93.9858L199.604 94.4464L203.814 98.6605L207.385 102.233L207.842 101.772L205.06 98.9869ZM204.201 99.966C203.538 100.231 202.785 99.9044 202.52 99.2371C202.459 99.0848 202.426 98.9216 202.426 98.7584V98.189L201.778 97.5399V98.7584C201.778 99.8318 202.651 100.706 203.723 100.706C204.06 100.706 204.393 100.619 204.686 100.452L204.201 99.966Z" fill="#CCCCCC"/>
<path d="M291.576 169.875C287.276 173.072 282.143 173.442 280.112 170.701C278.08 167.961 279.919 163.149 284.221 159.952C285.922 158.651 287.909 157.777 290.017 157.403L308.407 144.088L314.464 152.861L295.692 165.056C294.724 166.968 293.313 168.621 291.576 169.875Z" fill="#FFB6B6"/>
<path d="M303.162 61.4396C303.162 61.4396 317.997 61.9087 320.808 72.2288C323.62 82.549 329.242 104.546 328.305 135.088C328.305 135.088 332.991 154.79 320.808 153.852L303.941 161.357L292.696 146.346L302.067 135.088L303.162 61.4396Z" fill="#63ABFF"/>
</g>
<defs>
<clipPath id="clip0_6_56">
<rect width="357" height="238" fill="white"/>
</clipPath>
</defs>
</svg>
