<svg xmlns="http://www.w3.org/2000/svg" width="131" height="227" viewBox="0 0 131 227" fill="none">
    <g clip-path="url(#clip0_9_161)">
        <path d="M18.3273 226.486C18.3273 226.771 18.5559 227 18.8406 227H130.487C130.771 227 131 226.771 131 226.486C131 226.201 130.771 225.972 130.487 225.972H18.8406C18.5559 225.972 18.3273 226.201 18.3273 226.486Z" fill="#484565"/>
        <path d="M77.0403 0.14258C77.0403 0.14258 67.5898 -2.15153 61.8703 11.7082C57.1041 23.2608 53.7225 29.4303 57.5915 33.621C58.9761 35.1202 60.9516 35.9281 62.9875 35.9972L84.7698 36.7144C84.7698 36.7144 92.7667 15.7088 87.9056 8.11363C83.0445 0.51413 77.0403 0.14258 77.0403 0.14258Z" fill="#2F2E41"/>
        <path d="M81.5521 34.9689L71.075 38.4209V23.3126H80.5816L81.5521 34.9689Z" fill="#F6A6A9"/>
        <path d="M73.512 218.044H63.6949L58.0056 165.517H73.1755L73.512 218.044Z" fill="#F6A6A9"/>
        <path d="M54.1365 226.486C53.1057 226.486 52.1869 226.46 51.4925 226.395C48.8829 226.158 46.3984 224.231 45.1476 223.103C44.5868 222.598 44.4057 221.79 44.699 221.094C44.9103 220.593 45.3287 220.221 45.8463 220.074L52.7347 218.104L63.889 210.565L64.0141 210.79C64.0615 210.872 65.1571 212.851 65.5237 214.186C65.6618 214.696 65.6272 215.119 65.4159 215.443C65.2692 215.672 65.0665 215.802 64.8983 215.875C65.101 216.087 65.7351 216.514 67.6804 216.826C70.5272 217.279 71.1224 214.324 71.1483 214.199L71.1656 214.099L71.2518 214.043C72.6062 213.171 73.4387 212.773 73.7277 212.855C73.9088 212.907 74.2064 212.998 75.013 221.042C75.095 221.293 75.66 223.146 75.2762 224.913C74.8578 226.84 66.4597 226.175 64.7775 226.024C64.7301 226.028 58.4412 226.477 54.1322 226.477V226.486H54.1365Z" fill="#2F2E41"/>
        <path d="M95.6825 218.044H85.8697L80.1761 165.517H95.3461L95.6825 218.044Z" fill="#F6A6A9"/>
        <path d="M76.3113 226.486C75.2805 226.486 74.3617 226.46 73.6673 226.395C71.0577 226.158 68.5732 224.231 67.3224 223.103C66.7616 222.598 66.5805 221.79 66.8738 221.094C67.0851 220.593 67.5035 220.221 68.0211 220.074L74.9095 218.104L86.0638 210.565L86.1889 210.79C86.2363 210.872 87.3319 212.851 87.6985 214.186C87.8366 214.696 87.8021 215.119 87.5907 215.443C87.444 215.672 87.2413 215.802 87.0731 215.875C87.2758 216.087 87.9099 216.514 89.8552 216.826C92.702 217.279 93.2972 214.324 93.3231 214.199L93.3404 214.099L93.4266 214.043C94.781 213.171 95.6135 212.773 95.9025 212.855C96.0836 212.907 96.3813 212.998 97.1878 221.042C97.2698 221.293 97.8348 223.146 97.451 224.913C97.0326 226.84 88.6345 226.175 86.9523 226.024C86.9049 226.028 80.616 226.477 76.307 226.477V226.486H76.3113Z" fill="#2F2E41"/>
        <path d="M98.5077 89.0295H50.8196L67.9608 32.5236H86.9739L98.5077 89.0295Z" fill="#DDDEDF"/>
        <path d="M49.5213 120.737C48.9519 124.197 46.6486 126.681 44.3755 126.28C42.1024 125.878 40.7178 122.75 41.2871 119.289C41.4942 117.902 42.042 116.593 42.8831 115.466L45.4797 100.833L52.5492 102.315L49.2366 116.58C49.6723 117.928 49.7715 119.354 49.5256 120.737H49.5213Z" fill="#F6A6A9"/>
        <path d="M70.9628 32.5323C70.9628 32.5323 59.1184 32.2212 57.8719 35.3405C56.6253 38.4641 41.9773 112.766 41.9773 112.766H51.6391L70.9628 32.5323Z" fill="#DDDEDF"/>
        <path d="M73.4775 26.8812C79.2448 26.8812 83.9201 22.1983 83.9201 16.4217C83.9201 10.645 79.2448 5.9621 73.4775 5.9621C67.7102 5.9621 63.0349 10.645 63.0349 16.4217C63.0349 22.1983 67.7102 26.8812 73.4775 26.8812Z" fill="#F6A6A9"/>
        <path d="M75.1166 3.59453C75.1166 3.59453 61.7107 23.5675 63.9666 36.0274L56.1681 31.1325C56.1681 31.1325 61.659 5.91024 69.8414 3.95312L75.1166 3.59021V3.59453Z" fill="#2F2E41"/>
        <path d="M88.5957 89.0295H57.3025L40.1786 159.421C39.8638 162.393 41.7444 165.167 44.63 165.94C54.0244 168.459 76.5658 172.032 110.689 162.087C113.971 161.132 115.834 157.663 114.803 154.396L88.5957 89.0339V89.0295Z" fill="#2F2E41"/>
        <path d="M46.3898 42.5468L46.1742 42.3308L45.9585 42.5468C35.4642 32.044 18.4567 32.057 7.97104 42.5684C-2.51466 53.0842 -2.72601 70.331 7.76831 80.8338L46.2 119.289L84.6059 80.7863C95.0916 70.2705 94.8716 53.0237 84.3816 42.5209C73.8873 32.0181 56.8798 32.0311 46.3941 42.5425L46.3898 42.5468Z" fill="#63ABFF"/>
        <path d="M74.7715 37.8118L83.4413 33.3575C87.4052 31.8886 91.8264 32.3811 95.3719 34.6925C106.155 41.7174 127.411 57.2058 118.276 64.8615C106.237 74.9538 89.963 57.0546 89.963 57.0546L74.7715 37.8118Z" fill="#DDDEDF"/>
        <path d="M74.5817 45.4242C71.5667 43.6442 70.0872 40.5941 71.282 38.611C72.4768 36.6323 75.8887 36.4724 78.908 38.2524C80.1243 38.948 81.1466 39.933 81.8885 41.1255L94.5697 48.8416L90.6359 54.9074L78.55 46.6555C77.1352 46.5734 75.7722 46.15 74.5774 45.4199H74.5817V45.4242Z" fill="#F6A6A9"/>
        <path d="M83.1997 52.4188L86.8057 43.7911L104.426 49.6322L96.5452 62.7704L83.1997 52.4188Z" fill="#DDDEDF"/>
    </g>
    <defs>
        <clipPath id="clip0_9_161">
            <rect width="131" height="227" fill="white"/>
        </clipPath>
    </defs>
</svg>
