<svg xmlns="http://www.w3.org/2000/svg" width="33" height="33" viewBox="0 0 33 33" fill="none">
    <path d="M12.7679 28.3154V18.3728C12.7679 17.6203 12.7679 17.2441 12.9149 16.9567C13.0441 16.7038 13.2503 16.4984 13.504 16.3695C13.7924 16.2231 14.17 16.2231 14.9249 16.2231H18.6996C19.4547 16.2231 19.8321 16.2231 20.1205 16.3695C20.3742 16.4984 20.5803 16.7038 20.7096 16.9567C20.8566 17.2441 20.8566 17.6203 20.8566 18.3728V28.3154M3.33118 12.8641L15.5181 3.75451C15.9822 3.4076 16.2142 3.23414 16.469 3.16727C16.694 3.10826 16.9305 3.10826 17.1555 3.16729C17.4103 3.23414 17.6423 3.4076 18.1064 3.75451L30.2933 12.8641M6.02739 10.8487V24.0159C6.02739 25.5209 6.02739 26.2734 6.32126 26.8482C6.57976 27.3538 6.99223 27.765 7.49955 28.0225C8.07631 28.3154 8.83132 28.3154 10.3413 28.3154H23.2832C24.7932 28.3154 25.5483 28.3154 26.125 28.0225C26.6323 27.765 27.0448 27.3538 27.3032 26.8482C27.5971 26.2734 27.5971 25.5209 27.5971 24.0159V10.8487L19.4006 4.72189C18.4724 4.02807 18.0083 3.68117 17.4986 3.54744C17.0487 3.42941 16.5758 3.42941 16.1259 3.54744C15.6162 3.68117 15.1521 4.02807 14.2239 4.72189L6.02739 10.8487Z" stroke-width="2" stroke-linecap="round" stroke-linejoin="round"/>
</svg>
