<svg width="264" height="227" viewBox="0 0 264 227" fill="none" xmlns="http://www.w3.org/2000/svg">
    <g clip-path="url(#clip0_12_456)">
        <path d="M36.3107 222.364C35.7852 222.397 35.4948 221.742 35.8924 221.36L35.9319 221.202L35.9162 221.164C35.3848 219.893 33.584 219.901 33.0571 221.175C32.5895 222.305 31.9942 223.437 31.8476 224.632C31.7819 225.16 31.8114 225.697 31.9281 226.215C30.8324 223.813 30.2558 221.19 30.2558 218.553C30.2558 217.89 30.292 217.227 30.3659 216.566C30.4267 216.025 30.5104 215.488 30.6189 214.956C31.2053 212.077 32.4751 209.336 34.3067 207.046C35.1872 206.563 35.9215 205.808 36.365 204.903C36.5244 204.577 36.6492 204.226 36.7083 203.868C36.6081 203.881 36.3305 202.35 36.4061 202.256C36.2664 202.043 36.0165 201.937 35.864 201.73C35.1055 200.698 34.0605 200.878 33.5149 202.281C32.3495 202.871 32.3382 203.85 33.0533 204.791C33.5083 205.39 33.5708 206.201 33.97 206.842C33.9289 206.895 33.8862 206.946 33.8451 206.998C33.092 207.968 32.4407 209.01 31.8916 210.104C32.0468 208.888 31.8176 207.422 31.4271 206.478C30.9824 205.401 30.1491 204.495 29.4152 203.564C28.5337 202.446 26.726 202.934 26.5707 204.351L26.5663 204.392C26.6753 204.454 26.7821 204.52 26.8864 204.589C27.4814 204.984 27.2758 205.909 26.5708 206.018L26.5548 206.021C26.5942 206.415 26.6616 206.806 26.7601 207.19C25.8187 210.843 27.8513 212.174 30.7535 212.234C30.8176 212.267 30.88 212.3 30.9441 212.331C30.6501 213.162 30.4151 214.014 30.241 214.878C30.085 215.641 29.9765 216.413 29.9158 217.188C29.8402 218.165 29.8468 219.148 29.9289 220.124L29.924 220.089C29.7154 219.014 29.1339 218.01 28.2895 217.315C27.0317 216.278 25.2546 215.896 23.8976 215.062C23.2444 214.661 22.4074 215.18 22.5214 215.94L22.5269 215.976C22.729 216.058 22.9261 216.154 23.1166 216.261C23.2257 216.323 23.3324 216.388 23.4368 216.458C24.0318 216.853 23.8261 217.778 23.1211 217.887L23.1051 217.89L23.0723 217.895C23.4189 218.721 23.9018 219.487 24.5064 220.148C25.095 223.338 27.6235 223.64 30.3281 222.712H30.3297C30.6254 224.004 31.0574 225.267 31.6127 226.47H36.1958C36.2122 226.419 36.227 226.366 36.2418 226.315C35.818 226.342 35.3909 226.317 34.9736 226.239C35.3137 225.821 35.6537 225.399 35.9937 224.98C36.002 224.972 36.0085 224.963 36.0151 224.955C36.1876 224.741 36.3617 224.528 36.5342 224.314C36.545 223.656 36.4664 223 36.3107 222.364Z" fill="#F2F2F2"/>
        <path d="M231.385 222.364C231.91 222.397 232.201 221.742 231.803 221.36L231.764 221.202L231.779 221.164C232.311 219.893 234.112 219.901 234.638 221.175C235.106 222.305 235.701 223.437 235.848 224.632C235.914 225.16 235.884 225.697 235.767 226.215C236.863 223.813 237.44 221.19 237.44 218.553C237.44 217.89 237.404 217.227 237.33 216.566C237.269 216.025 237.185 215.488 237.077 214.956C236.49 212.077 235.22 209.336 233.389 207.046C232.508 206.563 231.774 205.808 231.331 204.903C231.171 204.577 231.046 204.226 230.987 203.868C231.087 203.881 231.365 202.35 231.289 202.256C231.429 202.043 231.679 201.937 231.832 201.73C232.59 200.698 233.635 200.878 234.181 202.281C235.346 202.871 235.357 203.85 234.642 204.791C234.187 205.39 234.125 206.201 233.726 206.842C233.767 206.895 233.809 206.946 233.85 206.998C234.604 207.968 235.255 209.01 235.804 210.104C235.649 208.888 235.878 207.422 236.268 206.478C236.713 205.401 237.546 204.495 238.28 203.564C239.162 202.446 240.969 202.934 241.125 204.351L241.129 204.392C241.02 204.454 240.913 204.52 240.809 204.589C240.214 204.984 240.42 205.909 241.125 206.018L241.141 206.021C241.101 206.415 241.034 206.806 240.935 207.19C241.877 210.843 239.844 212.174 236.942 212.234C236.878 212.267 236.815 212.3 236.751 212.331C237.045 213.162 237.28 214.014 237.455 214.878C237.611 215.641 237.719 216.413 237.78 217.188C237.855 218.165 237.849 219.148 237.767 220.124L237.772 220.089C237.98 219.014 238.562 218.01 239.406 217.315C240.664 216.278 242.441 215.896 243.798 215.062C244.451 214.661 245.288 215.18 245.174 215.94L245.169 215.976C244.967 216.058 244.769 216.154 244.579 216.261C244.47 216.323 244.363 216.388 244.259 216.458C243.664 216.853 243.869 217.778 244.574 217.887L244.59 217.89L244.623 217.895C244.277 218.721 243.794 219.487 243.189 220.148C242.6 223.338 240.072 223.64 237.367 222.712H237.366C237.07 224.004 236.638 225.267 236.083 226.47H231.5C231.483 226.419 231.468 226.366 231.454 226.315C231.877 226.342 232.305 226.317 232.722 226.239C232.382 225.821 232.042 225.399 231.702 224.98C231.694 224.972 231.687 224.963 231.68 224.955C231.508 224.741 231.334 224.528 231.161 224.314C231.15 223.656 231.229 223 231.385 222.364Z" fill="#F2F2F2"/>
        <path d="M142.655 224.312L146.589 224.312L148.46 209.084L142.654 209.084L142.655 224.312Z" fill="#FFB6B6"/>
        <path d="M156.133 224.222C156.256 224.43 156.32 225.098 156.32 225.338C156.32 226.078 155.723 226.678 154.985 226.678H142.802C142.299 226.678 141.891 226.269 141.891 225.764V225.255C141.891 225.255 141.288 223.725 142.529 221.84C142.529 221.84 144.071 223.316 146.376 221.004L147.055 219.768L151.974 223.379L154.701 223.715C155.298 223.789 155.826 223.704 156.133 224.222Z" fill="#2F2E41"/>
        <path d="M115.485 224.312L119.419 224.312L121.29 209.084L115.484 209.084L115.485 224.312Z" fill="#FFB6B6"/>
        <path d="M128.964 224.222C129.086 224.43 129.151 225.098 129.151 225.338C129.151 226.078 128.553 226.678 127.815 226.678H115.632C115.129 226.678 114.721 226.269 114.721 225.764V225.255C114.721 225.255 114.118 223.725 115.359 221.84C115.359 221.84 116.902 223.316 119.206 221.004L119.886 219.768L124.805 223.379L127.531 223.715C128.128 223.789 128.657 223.704 128.964 224.222Z" fill="#2F2E41"/>
        <path d="M0.439714 227H263.56C263.803 227 264 226.802 264 226.559C264 226.315 263.803 226.117 263.56 226.117H0.439714C0.196865 226.117 0 226.315 0 226.559C0 226.802 0.196865 227 0.439714 227Z" fill="#E6E6E6"/>
        <path d="M143.831 152.394L145.289 154.319C145.289 154.319 145.421 155.217 147.632 162.539L148.845 217.571H141.506L131.697 173.539L121.516 218.454L115.155 218.83L115.453 167.779C115.453 167.779 114.783 166.003 115.353 163.921C117.534 155.953 117.408 158.054 117.498 155.326C117.611 151.868 143.831 152.394 143.831 152.394Z" fill="#2F2E41"/>
        <path d="M132.262 106.149C136.515 106.149 139.963 102.689 139.963 98.4213C139.963 94.1533 136.515 90.6935 132.262 90.6935C128.009 90.6935 124.561 94.1533 124.561 98.4213C124.561 102.689 128.009 106.149 132.262 106.149Z" fill="#FEB8B8"/>
        <path d="M128.122 107.603L123.861 109.966C120.305 110.225 117.756 111.174 115.49 112.318L117.989 134.3L117.534 155.953C117.534 155.953 131.703 165.694 145.29 154.318V124.897L144.652 113.197C144.577 111.833 143.375 110.775 142.025 110.954C141.255 111.056 140.367 111.036 139.46 110.733L136.64 107.449L128.122 107.603Z" fill="#63ABFF"/>
        <path d="M152.214 89.4688C152.644 90.4413 152.819 91.4307 152.762 92.2883L157.439 101.294L153.104 103.402L148.826 94.0395C148.155 93.506 147.542 92.7115 147.112 91.7389C146.13 89.5171 146.477 87.2078 147.886 86.5809C149.295 85.954 151.233 87.247 152.214 89.4688Z" fill="#FFB6B6"/>
        <path d="M139.46 110.733L140.75 111.325C141.934 110.048 145.5 110.249 147.229 110.415L154.832 111.142L151.282 99.997L156.626 97.8387L163.012 110.172C163.399 112.264 162.532 114.39 160.795 115.611L144.502 124.896L142.608 112.178L139.46 110.733Z" fill="#63ABFF"/>
        <path d="M100.059 163.011C100.14 161.95 100.454 160.995 100.909 160.267L101.046 150.113L105.859 150.32L105.202 160.598C105.541 161.387 105.705 162.379 105.624 163.439C105.439 165.863 104.043 167.731 102.506 167.613C100.969 167.494 99.8738 165.434 100.059 163.011Z" fill="#FFB6B6"/>
        <path d="M119.057 115.096L116.845 111.725C116.845 111.725 113.238 112.416 111.322 115.145C109.405 117.874 102.16 134.612 102.16 134.612L100.769 153.508L106.158 152.394L108.758 138.064L117.118 126.599L119.057 115.096Z" fill="#63ABFF"/>
        <path d="M139.963 99.4463C140.252 97.9732 135.789 95.8292 135.796 95.8317C136.489 96.0536 135.4 97.3275 134.688 97.1773C134.688 97.1773 133.642 97.7112 134.212 98.1704C132.248 98.0015 129.623 96.1281 127.659 95.9591C126.868 95.8898 126.562 97.8017 126.066 98.4213C125.315 99.3701 124.561 97.4832 124.839 99.997H124.727C124.317 99.0049 123.907 97.9954 123.773 96.9296C123.643 95.8638 123.825 94.7157 124.503 93.8839C124.727 93.6023 123.845 92.6752 124.083 92.4066C124.838 91.5358 126.303 91.0591 126.976 90.1277C127.868 88.8937 128.882 89.7647 130.738 88.7269C131.224 88.4554 132.068 88.3577 132.606 88.4987L133.862 88.8279C133.618 89.1966 133.921 89.6828 134.358 89.6231L135.995 89.3998C136.613 89.5991 137.2 89.8937 137.476 90.4612C137.644 90.7992 137.675 91.1934 137.804 91.5487C138.042 92.2029 138.603 92.6751 139.052 93.2037C140.259 93.5564 140.324 94.4619 140.324 95.9803C141.449 96.6135 140.275 98.0294 139.963 99.4463Z" fill="#2F2E41"/>
        <path d="M13.9473 28.0177C14.2978 27.03 15.2753 26.447 16.2706 26.559C16.6853 26.6057 17.0997 26.6427 17.5164 26.6181C27.9081 26.0048 40.779 31.9757 54.4807 40.1526C41.9376 29.9676 30.4578 20.958 16.9559 30.2169C15.9914 30.8782 14.6251 30.6446 14.0641 29.6165C13.8387 29.2034 13.7573 28.7084 13.8917 28.1978C13.9075 28.1376 13.926 28.0775 13.9473 28.0177Z" fill="#E6E6E6"/>
        <path d="M83.2545 3.58828C84.111 4.13629 84.4635 5.17849 84.178 6.10757L84.1458 6.2124C83.8596 7.14507 83.2364 7.92866 82.4109 8.44441C70.5948 15.8262 84.2754 25.2732 62.407 40.5218C72.9967 29.1505 81.7069 2.8169 83.0301 3.46227C83.1063 3.49945 83.1812 3.54142 83.2545 3.58828Z" fill="#E6E6E6"/>
        <path d="M101.366 61.3124C100.925 62.2309 99.936 62.7058 98.9828 62.5316L98.8753 62.5119C97.9185 62.3375 97.0692 61.8096 96.4608 61.0482C87.7542 50.1508 80.0308 64.9036 62.347 44.9238C74.8555 54.1256 101.945 59.6787 101.464 61.0738C101.436 61.1542 101.404 61.2338 101.366 61.3124Z" fill="#E6E6E6"/>
        <path d="M85.4522 60.6314C84.9988 60.884 84.2674 60.8486 83.677 60.5747L83.6104 60.5438C83.0177 60.269 82.559 59.8835 82.2997 59.462C78.5887 53.4284 70.8833 57.3437 62.9568 45.9063C69.4547 52.1252 86.1256 60.1378 85.5593 60.5623C85.5267 60.5867 85.491 60.6099 85.4522 60.6314Z" fill="#E6E6E6"/>
        <path d="M89.0282 36.5652C88.916 37.0733 88.4048 37.5993 87.8091 37.8613L87.7419 37.8909C87.144 38.1541 86.5523 38.2433 86.0659 38.1587C79.1042 36.9475 76.9179 45.3324 63.13 43.7067C72.0773 42.9466 89.1062 35.732 89.0476 36.4389C89.0442 36.4796 89.0378 36.5217 89.0282 36.5652Z" fill="#E6E6E6"/>
        <path d="M19.3553 68.0819C18.8556 67.1944 19.0321 66.1082 19.7189 65.4225L19.7964 65.3451C20.4855 64.6565 21.4023 64.2583 22.3726 64.192C36.2591 63.2428 28.6014 48.4555 55.0442 45.2979C40.3736 50.3472 20.3607 69.4922 19.4945 68.2989C19.4446 68.2301 19.3981 68.1578 19.3553 68.0819Z" fill="#E6E6E6"/>
        <path d="M75.2009 67.9225C74.6872 68.2664 74.0279 68.1978 73.5894 67.7972L73.5399 67.752C73.0996 67.3501 72.8249 66.7958 72.7474 66.1958C71.6385 57.6085 63.0537 62.9225 60.1312 46.6214C63.7332 55.5408 76.009 67.2449 75.3258 67.8279C75.2865 67.8615 75.2448 67.8931 75.2009 67.9225Z" fill="#E6E6E6"/>
        <path d="M59.6482 82.0467C58.8613 82.0532 58.1991 81.5224 58.0005 80.794L57.9781 80.7118C57.7785 79.9808 57.8609 79.2037 58.1866 78.5155C62.8477 68.6651 49.993 68.3157 57.9618 49.0487C55.7556 60.9833 60.9791 81.892 59.847 82.0335C59.7818 82.0417 59.7155 82.0462 59.6482 82.0467Z" fill="#63ABFF"/>
        <path d="M31.1689 68.5852C30.662 67.9813 30.6469 67.1308 31.0792 66.5128L31.128 66.443C31.5617 65.8224 32.2105 65.3904 32.9464 65.203C43.4791 62.5213 35.5469 52.3643 55.416 46.2316C44.8499 52.1401 32.1367 69.5151 31.3059 68.7304C31.258 68.6853 31.2123 68.6368 31.1689 68.5852Z" fill="#63ABFF"/>
        <path d="M37.5595 59.767C37.2389 59.4664 37.2302 59.0141 37.505 58.6671L37.536 58.6279C37.8115 58.2795 38.2233 58.0225 38.6899 57.8923C45.3687 56.0278 40.3528 50.9477 52.9529 46.8587C46.2494 50.4428 38.1718 60.222 37.6461 59.8386C37.6158 59.8165 37.5869 59.7927 37.5595 59.767Z" fill="#63ABFF"/>
        <path d="M46.8996 66.1933C46.4942 66.025 46.3278 65.6047 46.4634 65.1828L46.4787 65.1353C46.6147 64.7119 46.9102 64.3261 47.3015 64.0396C52.9012 59.9387 46.4263 56.9516 56.7908 48.6798C51.7699 54.3994 47.6322 66.4035 47.0058 66.2299C46.9698 66.2199 46.9343 66.2077 46.8996 66.1933Z" fill="#E6E6E6"/>
        <path d="M19.5747 37.7026L20.5933 40.8484H23.8893L21.2228 42.7925L22.2413 45.9383L19.5747 43.9941L16.9082 45.9383L17.9267 42.7925L15.2601 40.8484H18.5562L19.5747 37.7026Z" fill="#63ABFF"/>
        <path d="M64.9962 0L66.0148 3.14574H69.3108L66.6443 5.08991L67.6628 8.23564L64.9962 6.29147L62.3297 8.23564L63.3482 5.08991L60.6816 3.14574H63.9777L64.9962 0Z" fill="#E6E6E6"/>
        <path d="M89.1089 33.7635L90.1275 36.9093H93.4235L90.7569 38.8535L91.7755 41.9992L89.1089 40.055L86.4423 41.9992L87.4609 38.8535L84.7943 36.9093H88.0904L89.1089 33.7635Z" fill="#63ABFF"/>
        <path d="M40.3228 68.0898L41.3413 71.2356H44.6374L41.9708 73.1797L42.9893 76.3255L40.3228 74.3813L37.6562 76.3255L38.6747 73.1797L36.0082 71.2356H39.3042L40.3228 68.0898Z" fill="#63ABFF"/>
        <path d="M58.8279 33.7635L59.8464 36.9093H63.1425L60.4759 38.8535L61.4945 41.9992L58.8279 40.055L56.1613 41.9992L57.1799 38.8535L54.5133 36.9093H57.8094L58.8279 33.7635Z" fill="#63ABFF"/>
        <path d="M84.2753 0L85.2938 3.14574H88.5899L85.9233 5.08991L86.9419 8.23564L84.2753 6.29147L81.6087 8.23564L82.6273 5.08991L79.9607 3.14574H83.2568L84.2753 0Z" fill="#E6E6E6"/>
        <path d="M17.8471 62.1715L19.1388 65.2146L22.422 64.9222L19.9371 67.0953L21.2288 70.1384L18.4014 68.4384L15.9165 70.6115L16.6539 67.3877L13.8265 65.6877L17.1097 65.3953L17.8471 62.1715Z" fill="#E6E6E6"/>
        <path d="M46.044 4.05253C46.6385 3.7588 47.3067 3.95694 47.685 4.48914L47.7277 4.54918C48.1077 5.08315 48.2882 5.75868 48.2566 6.44958C47.8032 16.3382 57.6591 11.9179 57.6429 30.839C55.5831 20.119 45.0832 4.66871 45.8973 4.13633C45.9442 4.10566 45.9931 4.07766 46.044 4.05253Z" fill="#63ABFF"/>
        <path d="M37.4486 18.7098C37.7121 18.3796 38.1446 18.3341 38.4978 18.5672L38.5376 18.5935C38.8922 18.8272 39.1695 19.1982 39.3297 19.632C41.6217 25.84 46.1064 20.643 50.9778 32.308C47.037 26.2182 37.0592 19.3306 37.3865 18.7983C37.4054 18.7676 37.4261 18.7381 37.4486 18.7098Z" fill="#E6E6E6"/>
        <path d="M29.8621 36.7546C29.8982 36.3331 30.2324 36.054 30.6551 36.0506L30.7028 36.0502C31.1271 36.0467 31.5631 36.2004 31.9365 36.4715C37.2811 40.3529 38.1295 33.531 48.6414 40.509C41.9919 37.6458 29.8824 37.4878 29.8595 36.8627C29.8582 36.8267 29.859 36.7906 29.8621 36.7546Z" fill="#E6E6E6"/>
        <path d="M179.116 54.053C179.344 53.4103 179.98 53.031 180.627 53.1039C180.897 53.1343 181.167 53.1584 181.438 53.1424C188.199 52.7433 196.573 56.6282 205.488 61.9484C197.327 55.3217 189.858 49.4597 181.073 55.4838C180.446 55.9141 179.557 55.7622 179.192 55.0932C179.045 54.8245 178.992 54.5024 179.079 54.1702C179.09 54.131 179.102 54.0919 179.116 54.053Z" fill="#E6E6E6"/>
        <path d="M224.209 38.1583C224.767 38.5149 224.996 39.1929 224.81 39.7974L224.789 39.8656C224.603 40.4725 224.198 40.9823 223.661 41.3179C215.973 46.1208 224.874 52.2673 210.645 62.1886C217.535 54.79 223.202 37.6564 224.063 38.0763C224.113 38.1005 224.162 38.1278 224.209 38.1583Z" fill="#E6E6E6"/>
        <path d="M235.994 75.7158C235.707 76.3134 235.063 76.6224 234.443 76.509L234.373 76.4963C233.75 76.3828 233.198 76.0393 232.802 75.5439C227.137 68.4537 222.112 78.0524 210.606 65.0527C218.745 71.0398 236.371 74.6529 236.057 75.5606C236.039 75.6129 236.018 75.6647 235.994 75.7158Z" fill="#E6E6E6"/>
        <path d="M225.639 75.2728C225.344 75.4371 224.869 75.414 224.484 75.2358L224.441 75.2157C224.055 75.0369 223.757 74.7861 223.588 74.5119C221.174 70.5862 216.16 73.1336 211.003 65.692C215.231 69.7383 226.078 74.9516 225.709 75.2278C225.688 75.2437 225.665 75.2587 225.639 75.2728Z" fill="#E6E6E6"/>
        <path d="M227.966 59.6143C227.893 59.9449 227.56 60.2872 227.173 60.4577L227.129 60.4769C226.74 60.6482 226.355 60.7062 226.039 60.6511C221.509 59.8631 220.087 65.3186 211.116 64.2609C216.937 63.7663 228.017 59.0722 227.979 59.5322C227.976 59.5586 227.972 59.5861 227.966 59.6143Z" fill="#E6E6E6"/>
        <path d="M182.634 80.1203C182.309 79.5428 182.424 78.8361 182.871 78.3899L182.921 78.3396C183.37 77.8916 183.966 77.6325 184.597 77.5893C193.632 76.9718 188.65 67.3506 205.855 65.2961C196.309 68.5814 183.288 81.0379 182.725 80.2614C182.692 80.2167 182.662 80.1696 182.634 80.1203Z" fill="#E6E6E6"/>
        <path d="M218.969 80.0166C218.635 80.2403 218.206 80.1957 217.921 79.9351L217.889 79.9057C217.602 79.6442 217.424 79.2835 217.373 78.8932C216.652 73.3059 211.066 76.7634 209.165 66.1573C211.508 71.9606 219.495 79.5757 219.051 79.955C219.025 79.9769 218.998 79.9974 218.969 80.0166Z" fill="#E6E6E6"/>
        <path d="M208.85 89.2063C208.338 89.2106 207.907 88.8652 207.778 88.3913L207.764 88.3378C207.634 87.8622 207.687 87.3566 207.899 86.9088C210.932 80.4998 202.568 80.2724 207.753 67.7366C206.318 75.5017 209.716 89.1057 208.98 89.1978C208.937 89.2031 208.894 89.206 208.85 89.2063Z" fill="#63ABFF"/>
        <path d="M190.321 80.4478C189.991 80.0549 189.981 79.5015 190.262 79.0994L190.294 79.054C190.576 78.6502 190.998 78.3691 191.477 78.2472C198.33 76.5024 193.169 69.8938 206.097 65.9037C199.222 69.7479 190.95 81.0528 190.41 80.5423C190.379 80.5129 190.349 80.4814 190.321 80.4478Z" fill="#63ABFF"/>
        <path d="M194.479 74.7103C194.27 74.5147 194.264 74.2205 194.443 73.9947L194.463 73.9692C194.643 73.7425 194.91 73.5753 195.214 73.4906C199.56 72.2775 196.296 68.9722 204.494 66.3117C200.133 68.6437 194.877 75.0064 194.535 74.7569C194.515 74.7426 194.496 74.727 194.479 74.7103Z" fill="#63ABFF"/>
        <path d="M200.556 78.8916C200.292 78.782 200.184 78.5085 200.272 78.2341L200.282 78.2031C200.37 77.9276 200.562 77.6767 200.817 77.4902C204.46 74.822 200.248 72.8785 206.991 67.4966C203.724 71.218 201.032 79.0283 200.625 78.9153C200.601 78.9088 200.578 78.9009 200.556 78.8916Z" fill="#E6E6E6"/>
        <path d="M182.777 60.3544L183.44 62.4011H185.584L183.849 63.6661L184.512 65.7128L182.777 64.4478L181.042 65.7128L181.705 63.6661L179.97 62.4011H182.114L182.777 60.3544Z" fill="#63ABFF"/>
        <path d="M212.33 35.8236L212.993 37.8703H215.137L213.402 39.1353L214.065 41.182L212.33 39.9171L210.595 41.182L211.258 39.1353L209.523 37.8703H211.667L212.33 35.8236Z" fill="#E6E6E6"/>
        <path d="M228.019 57.7915L228.681 59.8382H230.826L229.091 61.1032L229.754 63.1499L228.019 61.885L226.284 63.1499L226.946 61.1032L225.211 59.8382H227.356L228.019 57.7915Z" fill="#63ABFF"/>
        <path d="M196.276 80.1255L196.939 82.1722H199.084L197.349 83.4372L198.011 85.4839L196.276 84.219L194.542 85.4839L195.204 83.4372L193.469 82.1722H195.614L196.276 80.1255Z" fill="#63ABFF"/>
        <path d="M208.317 57.7915L208.979 59.8382H211.124L209.389 61.1032L210.051 63.1499L208.317 61.885L206.582 63.1499L207.244 61.1032L205.509 59.8382H207.654L208.317 57.7915Z" fill="#63ABFF"/>
        <path d="M224.874 35.8236L225.536 37.8703H227.681L225.946 39.1353L226.609 41.182L224.874 39.9171L223.139 41.182L223.801 39.1353L222.066 37.8703H224.211L224.874 35.8236Z" fill="#E6E6E6"/>
        <path d="M181.653 76.2748L182.493 78.2547L184.629 78.0645L183.013 79.4784L183.853 81.4583L182.014 80.3522L180.397 81.7661L180.877 79.6686L179.037 78.5625L181.173 78.3723L181.653 76.2748Z" fill="#E6E6E6"/>
        <path d="M199.999 38.4603C200.386 38.2692 200.82 38.3981 201.067 38.7444L201.094 38.7834C201.342 39.1309 201.459 39.5704 201.438 40.0199C201.144 46.4538 207.556 43.5778 207.546 55.8886C206.205 48.9138 199.374 38.8612 199.903 38.5148C199.934 38.4949 199.966 38.4767 199.999 38.4603Z" fill="#63ABFF"/>
        <path d="M194.406 47.9969C194.578 47.7821 194.859 47.7525 195.089 47.9041L195.115 47.9212C195.346 48.0733 195.526 48.3147 195.63 48.5969C197.122 52.6361 200.039 49.2548 203.209 56.8444C200.645 52.8822 194.153 48.4009 194.366 48.0545C194.378 48.0345 194.392 48.0153 194.406 47.9969Z" fill="#E6E6E6"/>
        <path d="M189.47 59.7375C189.494 59.4633 189.711 59.2817 189.986 59.2795L190.017 59.2793C190.293 59.277 190.577 59.377 190.82 59.5534C194.297 62.0787 194.849 57.6402 201.689 62.1803C197.362 60.3174 189.484 60.2146 189.469 59.8079C189.468 59.7845 189.468 59.761 189.47 59.7375Z" fill="#E6E6E6"/>
    </g>
    <defs>
        <clipPath id="clip0_12_456">
            <rect width="264" height="227" fill="white"/>
        </clipPath>
    </defs>
</svg>
